<svg xmlns="http://www.w3.org/2000/svg" xmlns:xlink="http://www.w3.org/1999/xlink" width="388" zoomAndPan="magnify" viewBox="0 0 291 107.999999" height="144" preserveAspectRatio="xMidYMid meet" version="1.0"><defs><g/><clipPath id="c6a823b549"><path d="M 0.0703125 0.617188 L 90.070312 0.617188 L 90.070312 86.117188 L 0.0703125 86.117188 Z M 0.0703125 0.617188 " clip-rule="nonzero"/></clipPath><clipPath id="de9c431ff4"><path d="M 86 58 L 115 58 L 115 86 L 86 86 Z M 86 58 " clip-rule="nonzero"/></clipPath><clipPath id="58220cfe4c"><path d="M 92.070312 54.527344 L 118.320312 63.535156 L 109.3125 89.78125 L 83.066406 80.777344 Z M 92.070312 54.527344 " clip-rule="nonzero"/></clipPath><clipPath id="c24d0fb112"><path d="M 92.070312 54.527344 L 118.320312 63.535156 L 109.3125 89.78125 L 83.066406 80.777344 Z M 92.070312 54.527344 " clip-rule="nonzero"/></clipPath></defs><g clip-path="url(#c6a823b549)"><path fill="#1c4076" d="M 88.472656 29.25 C 83.609375 11.332031 68.886719 0.628906 49.089844 0.628906 L 0.0742188 0.628906 L 1.039062 2.847656 C 5.195312 12.371094 14.59375 18.523438 24.984375 18.527344 L 38.332031 18.527344 L 38.441406 18.523438 C 38.949219 18.488281 40.824219 18.375 43.632812 18.375 C 46.339844 18.375 49.09375 18.480469 51.8125 18.691406 L 52.082031 18.710938 C 62.496094 19.53125 76.761719 22.253906 85.578125 30.550781 L 85.691406 30.65625 C 85.738281 30.703125 85.785156 30.742188 85.828125 30.789062 L 90.023438 34.96875 Z M 89.816406 49.90625 L 89.804688 50.078125 C 87.15625 72.40625 71.390625 86.277344 48.652344 86.277344 L 17.382812 86.277344 L 17.382812 44.003906 L 18.964844 44.003906 C 28.117188 44.003906 35.566406 51.449219 35.566406 60.605469 L 35.566406 68.089844 L 49.417969 68.089844 C 56.238281 68.089844 61.980469 65.851562 66.03125 61.613281 C 70.148438 57.296875 72.324219 51.0625 72.324219 43.582031 L 72.324219 43.324219 C 72.324219 37.535156 71.050781 32.539062 68.539062 28.476562 L 66.191406 24.6875 L 70.402344 26.148438 C 75.628906 27.960938 79.867188 30.375 83 33.328125 C 87.578125 37.640625 89.871094 43.214844 89.816406 49.90625 " fill-opacity="1" fill-rule="nonzero"/></g><g fill="#1c4076" fill-opacity="1"><g transform="translate(114.743016, 83.653353)"><g><path d="M 27.5625 0 L 27.5625 -12.21875 C 27.5625 -13.4375 27.488281 -14.390625 27.34375 -15.078125 C 27.195312 -15.765625 26.972656 -16.226562 26.671875 -16.46875 C 26.378906 -16.707031 25.894531 -16.828125 25.21875 -16.828125 C 24.4375 -16.828125 23.609375 -16.535156 22.734375 -15.953125 C 21.867188 -15.378906 21.0625 -14.671875 20.3125 -13.828125 L 20.3125 0 L 15.21875 0 L 15.21875 -12.21875 C 15.21875 -13.5625 15.15625 -14.53125 15.03125 -15.125 C 14.914062 -15.726562 14.707031 -16.160156 14.40625 -16.421875 C 14.101562 -16.691406 13.585938 -16.828125 12.859375 -16.828125 C 12.234375 -16.828125 11.503906 -16.585938 10.671875 -16.109375 C 9.835938 -15.628906 8.9375 -14.867188 7.96875 -13.828125 L 7.96875 0 L 2.859375 0 L 2.859375 -20.734375 L 7.96875 -20.734375 L 7.96875 -18.046875 C 8.914062 -19.066406 9.910156 -19.867188 10.953125 -20.453125 C 11.992188 -21.035156 13.144531 -21.328125 14.40625 -21.328125 C 16.132812 -21.328125 17.410156 -21.03125 18.234375 -20.4375 C 19.054688 -19.84375 19.617188 -18.960938 19.921875 -17.796875 C 21.109375 -18.984375 22.21875 -19.867188 23.25 -20.453125 C 24.28125 -21.035156 25.488281 -21.328125 26.875 -21.328125 C 28.882812 -21.328125 30.347656 -20.753906 31.265625 -19.609375 C 32.191406 -18.460938 32.65625 -16.535156 32.65625 -13.828125 L 32.65625 0 Z M 27.5625 0 "/></g></g></g><g fill="#ee7d22" fill-opacity="1"><g transform="translate(150.110202, 83.653353)"><g><path d="M 16.21875 0 L 16.21875 -11.421875 C 16.21875 -13.578125 16.023438 -15.015625 15.640625 -15.734375 C 15.253906 -16.460938 14.519531 -16.828125 13.4375 -16.828125 C 11.925781 -16.828125 10.101562 -15.828125 7.96875 -13.828125 L 7.96875 0 L 2.859375 0 L 2.859375 -20.734375 L 7.96875 -20.734375 L 7.96875 -18.046875 C 9.039062 -19.117188 10.191406 -19.929688 11.421875 -20.484375 C 12.648438 -21.046875 13.847656 -21.328125 15.015625 -21.328125 C 17.140625 -21.328125 18.722656 -20.742188 19.765625 -19.578125 C 20.804688 -18.421875 21.328125 -16.503906 21.328125 -13.828125 L 21.328125 0 Z M 16.21875 0 "/></g></g></g><g fill="#ee7d22" fill-opacity="1"><g transform="translate(174.148996, 83.653353)"><g><path d="M 7.078125 -9.03125 C 7.171875 -7.1875 7.617188 -5.863281 8.421875 -5.0625 C 9.222656 -4.257812 10.488281 -3.859375 12.21875 -3.859375 C 13.21875 -3.859375 14.09375 -3.984375 14.84375 -4.234375 C 15.601562 -4.484375 16.265625 -4.960938 16.828125 -5.671875 L 20.625 -2.96875 C 19.800781 -1.769531 18.722656 -0.875 17.390625 -0.28125 C 16.066406 0.3125 14.257812 0.609375 11.96875 0.609375 C 8.5625 0.609375 6.015625 -0.285156 4.328125 -2.078125 C 2.648438 -3.867188 1.8125 -6.578125 1.8125 -10.203125 C 1.8125 -17.617188 5.132812 -21.328125 11.78125 -21.328125 C 14.726562 -21.328125 16.972656 -20.492188 18.515625 -18.828125 C 20.066406 -17.160156 20.84375 -14.734375 20.84375 -11.546875 L 20.84375 -9.03125 Z M 15.78125 -12.546875 C 15.78125 -15.691406 14.40625 -17.265625 11.65625 -17.265625 C 10.75 -17.265625 10.003906 -17.109375 9.421875 -16.796875 C 8.847656 -16.492188 8.382812 -16.035156 8.03125 -15.421875 C 7.6875 -14.804688 7.414062 -13.847656 7.21875 -12.546875 Z M 15.78125 -12.546875 "/></g></g></g><g fill="#ee7d22" fill-opacity="1"><g transform="translate(196.726105, 83.653353)"><g><path d="M 15.375 -15.75 C 14.84375 -16.007812 14.144531 -16.140625 13.28125 -16.140625 C 12.332031 -16.140625 11.429688 -15.910156 10.578125 -15.453125 C 9.734375 -15.003906 8.863281 -14.34375 7.96875 -13.46875 L 7.96875 0 L 2.859375 0 L 2.859375 -20.734375 L 7.96875 -20.734375 L 7.96875 -17.765625 C 8.832031 -18.710938 9.765625 -19.492188 10.765625 -20.109375 C 11.765625 -20.734375 12.882812 -21.046875 14.125 -21.046875 C 15.175781 -21.046875 15.925781 -20.90625 16.375 -20.625 Z M 15.375 -15.75 "/></g></g></g><g fill="#ee7d22" fill-opacity="1"><g transform="translate(213.318206, 83.653353)"><g><path d="M 15.484375 0 L 9.953125 -8.578125 L 7.96875 -6.4375 L 7.96875 0 L 2.859375 0 L 2.859375 -29.421875 L 7.96875 -29.421875 L 7.96875 -12.59375 L 14.9375 -20.734375 L 20.84375 -20.734375 L 13.015625 -12.015625 L 21.28125 0 Z M 15.484375 0 "/></g></g></g><g fill="#ee7d22" fill-opacity="1"><g transform="translate(235.045958, 83.653353)"><g><path d="M 15.09375 0 L 15.09375 -2.15625 C 13.082031 -0.3125 10.921875 0.609375 8.609375 0.609375 C 6.316406 0.609375 4.582031 0.0078125 3.40625 -1.1875 C 2.238281 -2.394531 1.65625 -3.941406 1.65625 -5.828125 C 1.65625 -7.304688 1.953125 -8.523438 2.546875 -9.484375 C 3.148438 -10.441406 4.039062 -11.191406 5.21875 -11.734375 C 6.40625 -12.285156 8.101562 -12.675781 10.3125 -12.90625 L 14.6875 -13.3125 L 14.6875 -14.25 C 14.6875 -15.40625 14.335938 -16.195312 13.640625 -16.625 C 12.941406 -17.050781 11.921875 -17.265625 10.578125 -17.265625 C 9.460938 -17.265625 8.503906 -17.078125 7.703125 -16.703125 C 6.910156 -16.335938 6.328125 -15.816406 5.953125 -15.140625 L 1.96875 -17.6875 C 2.664062 -18.851562 3.757812 -19.75 5.25 -20.375 C 6.738281 -21.007812 8.539062 -21.328125 10.65625 -21.328125 C 13.875 -21.328125 16.195312 -20.757812 17.625 -19.625 C 19.0625 -18.5 19.78125 -16.65625 19.78125 -14.09375 L 19.78125 0 Z M 14.6875 -9.625 L 12.09375 -9.390625 C 10.257812 -9.234375 8.9375 -8.882812 8.125 -8.34375 C 7.320312 -7.800781 6.921875 -6.988281 6.921875 -5.90625 C 6.921875 -4.957031 7.179688 -4.304688 7.703125 -3.953125 C 8.234375 -3.609375 8.929688 -3.4375 9.796875 -3.4375 C 10.421875 -3.4375 11.175781 -3.628906 12.0625 -4.015625 C 12.945312 -4.410156 13.820312 -4.960938 14.6875 -5.671875 Z M 14.6875 -9.625 "/></g></g></g><path fill="#21a7e0" d="M 103.136719 93.195312 L 103.136719 93.125 C 103.136719 92.691406 103.289062 92.324219 103.59375 92.015625 C 103.902344 91.710938 104.269531 91.558594 104.703125 91.558594 L 107.539062 91.558594 L 107.539062 94.558594 L 104.703125 94.558594 C 105.660156 94.558594 106.136719 94.078125 106.136719 93.125 L 106.136719 93.195312 Z M 110.539062 91.558594 L 113.539062 91.558594 L 113.539062 94.558594 L 110.539062 94.558594 Z M 116.539062 91.558594 L 119.539062 91.558594 L 119.539062 94.558594 L 116.539062 94.558594 Z M 122.539062 91.558594 L 125.539062 91.558594 L 125.539062 94.558594 L 122.539062 94.558594 Z M 128.539062 91.558594 L 131.539062 91.558594 L 131.539062 94.558594 L 128.539062 94.558594 Z M 134.539062 91.558594 L 137.539062 91.558594 L 137.539062 94.558594 L 134.539062 94.558594 Z M 140.539062 91.558594 L 143.539062 91.558594 L 143.539062 94.558594 L 140.539062 94.558594 Z M 146.539062 91.558594 L 149.539062 91.558594 L 149.539062 94.558594 L 146.539062 94.558594 Z M 152.539062 91.558594 L 155.539062 91.558594 L 155.539062 94.558594 L 152.539062 94.558594 Z M 158.539062 91.558594 L 161.539062 91.558594 L 161.539062 94.558594 L 158.539062 94.558594 Z M 164.539062 91.558594 L 167.539062 91.558594 L 167.539062 94.558594 L 164.539062 94.558594 Z M 170.539062 91.558594 L 173.539062 91.558594 L 173.539062 94.558594 L 170.539062 94.558594 Z M 176.539062 91.558594 L 179.539062 91.558594 L 179.539062 94.558594 L 176.539062 94.558594 Z M 182.539062 91.558594 L 185.539062 91.558594 L 185.539062 94.558594 L 182.539062 94.558594 Z M 188.539062 91.558594 L 191.539062 91.558594 L 191.539062 94.558594 L 188.539062 94.558594 Z M 194.539062 91.558594 L 197.539062 91.558594 L 197.539062 94.558594 L 194.539062 94.558594 Z M 200.539062 91.558594 L 203.539062 91.558594 L 203.539062 94.558594 L 200.539062 94.558594 Z M 206.539062 91.558594 L 209.539062 91.558594 L 209.539062 94.558594 L 206.539062 94.558594 Z M 212.539062 91.558594 L 215.539062 91.558594 L 215.539062 94.558594 L 212.539062 94.558594 Z M 218.539062 91.558594 L 221.539062 91.558594 L 221.539062 94.558594 L 218.539062 94.558594 Z M 224.539062 91.558594 L 227.539062 91.558594 L 227.539062 94.558594 L 224.539062 94.558594 Z M 230.539062 91.558594 L 233.539062 91.558594 L 233.539062 94.558594 L 230.539062 94.558594 Z M 236.539062 91.558594 L 239.539062 91.558594 L 239.539062 94.558594 L 236.539062 94.558594 Z M 242.539062 91.558594 L 245.539062 91.558594 L 245.539062 94.558594 L 242.539062 94.558594 Z M 248.539062 91.558594 L 251.539062 91.558594 L 251.539062 94.558594 L 248.539062 94.558594 Z M 254.539062 91.558594 L 254.792969 91.558594 C 254.382812 91.558594 254.035156 91.703125 253.742188 91.992188 C 253.453125 92.28125 253.3125 92.628906 253.3125 93.039062 C 253.3125 92.621094 253.457031 92.265625 253.753906 91.96875 C 254.050781 91.671875 254.410156 91.523438 254.828125 91.523438 L 257.523438 91.523438 L 257.523438 94.523438 L 254.828125 94.523438 C 255.234375 94.523438 255.585938 94.378906 255.875 94.089844 C 256.164062 93.800781 256.3125 93.449219 256.3125 93.039062 C 256.3125 93.460938 256.164062 93.816406 255.867188 94.109375 C 255.570312 94.40625 255.214844 94.558594 254.792969 94.558594 L 254.539062 94.558594 Z M 260.523438 91.523438 L 263.523438 91.523438 L 263.523438 94.523438 L 260.523438 94.523438 Z M 266.523438 91.523438 L 269.523438 91.523438 L 269.523438 94.523438 L 266.523438 94.523438 Z M 266.523438 91.523438 " fill-opacity="1" fill-rule="nonzero"/><path stroke-linecap="butt" transform="matrix(0.75, -0.000000000000000372, 0.000000000000000372, 0.75, 21.220544, 91.693912)" fill="none" stroke-linejoin="miter" d="M 14.997609 2.001867 L 100.82053 2.001867 " stroke="#21a7e0" stroke-width="4" stroke-opacity="1" stroke-miterlimit="4"/><path stroke-linecap="round" transform="matrix(0.75, -0.000000000000000372, 0.000000000000000372, 0.75, 21.220544, 91.693912)" fill="none" stroke-linejoin="round" d="M 1.997608 2.001867 C 1.997608 -1.315841 4.685108 -3.998133 7.997608 -3.998133 C 11.315317 -3.998133 13.997609 -1.315841 13.997609 2.001867 C 13.997609 5.314367 11.315317 8.001868 7.997608 8.001868 C 4.685108 8.001868 1.997608 5.314367 1.997608 2.001867 " stroke="#21a7e0" stroke-width="4" stroke-opacity="1" stroke-miterlimit="4"/><path stroke-linecap="round" transform="matrix(0.75, -0.000000000000000372, 0.000000000000000372, 0.75, 21.220544, 91.693912)" fill="none" stroke-linejoin="round" d="M 111.820531 2.001867 L 105.82053 -3.998133 L 99.82053 2.001867 L 105.82053 8.001868 Z M 111.820531 2.001867 " stroke="#21a7e0" stroke-width="4" stroke-opacity="1" stroke-miterlimit="4"/><path stroke-linecap="butt" transform="matrix(0.75, 0, 0, 0.75, 118.424292, 37.235486)" fill="none" stroke-linejoin="miter" d="M 15.001986 1.998519 L 112.080117 1.998519 " stroke="#21a7e0" stroke-width="4" stroke-opacity="1" stroke-miterlimit="4"/><path stroke-linecap="round" transform="matrix(0.75, 0, 0, 0.75, 118.424292, 37.235486)" fill="none" stroke-linejoin="round" d="M 2.001985 -4.001481 L 14.001986 -4.001481 L 14.001986 7.998519 L 2.001985 7.998519 Z M 2.001985 -4.001481 " stroke="#21a7e0" stroke-width="4" stroke-opacity="1" stroke-miterlimit="4"/><path stroke-linecap="round" transform="matrix(0.75, 0, 0, 0.75, 118.424292, 37.235486)" fill-opacity="1" fill="#21a7e0" fill-rule="nonzero" stroke-linejoin="round" d="M 125.080117 1.998519 C 125.080117 5.316227 122.392617 7.998519 119.080117 7.998519 C 115.767617 7.998519 113.080117 5.316227 113.080117 1.998519 C 113.080117 -1.313981 115.767617 -4.001481 119.080117 -4.001481 C 122.392617 -4.001481 125.080117 -1.313981 125.080117 1.998519 " stroke="#21a7e0" stroke-width="4" stroke-opacity="1" stroke-miterlimit="4"/><path stroke-linecap="butt" transform="matrix(0.75, 0, 0, 0.75, 99.51765, 37.235486)" fill="none" stroke-linejoin="miter" d="M 2.002508 32.555812 L 2.002508 13.56102 C 2.002508 10.493311 3.21605 7.555811 5.387925 5.383936 C 7.554592 3.217269 10.4973 1.998519 13.559801 1.998519 L 25.122301 1.998519 " stroke="#21a7e0" stroke-width="4" stroke-opacity="1" stroke-miterlimit="4"/><path stroke-linecap="butt" transform="matrix(0, -0.75, 0.75, 0, 99.212481, 90.314229)" fill="none" stroke-linejoin="miter" d="M 0.00230531 1.997943 L 10.293973 1.997943 " stroke="#21a7e0" stroke-width="4" stroke-opacity="1" stroke-miterlimit="4"/><path stroke-linecap="butt" transform="matrix(0.75, 0, 0, 0.75, 99.530351, 49.771545)" fill="none" stroke-linejoin="miter" d="M 226.292878 57.669193 L 221.532461 57.669193 C 218.902253 57.669193 216.772044 55.538985 216.772044 52.908776 L 216.772044 26.002525 C 216.772044 12.747316 206.027252 2.002524 192.772043 2.002524 L 8.600158 2.002524 C 4.954324 2.002524 2.001199 4.955649 2.001199 8.596274 L 2.001199 15.195233 " stroke="#ee7d22" stroke-width="4" stroke-opacity="1" stroke-miterlimit="4"/><path stroke-linecap="round" transform="matrix(0.75, 0, 0, 0.75, 99.530351, 49.771545)" fill="none" stroke-linejoin="round" d="M 239.292879 57.669193 C 239.292879 60.986902 236.605379 63.669194 233.292878 63.669194 C 229.980378 63.669194 227.292878 60.986902 227.292878 57.669193 C 227.292878 54.356693 229.980378 51.669193 233.292878 51.669193 C 236.605379 51.669193 239.292879 54.356693 239.292879 57.669193 " stroke="#ee7d22" stroke-width="4" stroke-opacity="1" stroke-miterlimit="4"/><g clip-path="url(#de9c431ff4)"><g clip-path="url(#58220cfe4c)"><g clip-path="url(#c24d0fb112)"><path fill="#1c4076" d="M 111.085938 75.898438 C 111.132812 75.773438 111.28125 75.65625 111.414062 75.640625 L 114.09375 75.277344 C 114.226562 75.261719 114.355469 75.136719 114.375 75.007812 L 114.683594 72.390625 C 114.691406 72.257812 114.597656 72.109375 114.472656 72.058594 L 111.929688 70.996094 C 111.804688 70.945312 111.6875 70.792969 111.671875 70.664062 L 111.539062 69.890625 C 111.515625 69.757812 111.574219 69.582031 111.675781 69.496094 L 113.753906 67.730469 C 113.855469 67.644531 113.894531 67.472656 113.84375 67.347656 L 112.695312 64.933594 C 112.628906 64.816406 112.46875 64.738281 112.339844 64.761719 L 109.640625 65.242188 C 109.511719 65.265625 109.332031 65.203125 109.246094 65.101562 L 108.753906 64.542969 C 108.664062 64.445312 108.621094 64.261719 108.660156 64.132812 L 109.457031 61.503906 C 109.496094 61.375 109.4375 61.207031 109.332031 61.128906 L 107.078125 59.703125 C 106.960938 59.636719 106.789062 59.65625 106.6875 59.75 L 104.691406 61.597656 C 104.59375 61.6875 104.464844 61.742188 104.398438 61.722656 L 104.339844 61.699219 C 103.988281 61.578125 103.511719 61.457031 103.511719 61.457031 C 103.382812 61.421875 103.246094 61.289062 103.210938 61.160156 L 102.457031 58.503906 C 102.421875 58.378906 102.28125 58.265625 102.148438 58.257812 L 99.535156 58.242188 C 99.398438 58.25 99.265625 58.363281 99.230469 58.492188 L 98.554688 61.109375 C 98.523438 61.238281 98.390625 61.371094 98.261719 61.402344 L 97.339844 61.664062 C 97.210938 61.703125 97.027344 61.664062 96.925781 61.574219 L 94.855469 59.75 C 94.753906 59.660156 94.578125 59.640625 94.460938 59.707031 L 92.316406 61.054688 C 92.207031 61.132812 92.152344 61.296875 92.195312 61.425781 L 93.039062 63.980469 C 93.082031 64.105469 93.039062 64.289062 92.949219 64.382812 L 92.183594 65.242188 C 92.101562 65.347656 91.921875 65.414062 91.792969 65.394531 L 89.074219 64.976562 C 88.941406 64.957031 88.78125 65.035156 88.71875 65.15625 C 88.71875 65.15625 87.929688 66.644531 87.605469 67.582031 L 87.605469 67.585938 C 87.601562 67.59375 87.6875 67.667969 87.789062 67.75 L 89.878906 69.441406 C 89.984375 69.527344 90.046875 69.703125 90.023438 69.832031 L 89.828125 71.132812 C 89.8125 71.265625 89.703125 71.417969 89.582031 71.472656 L 87.082031 72.585938 C 86.960938 72.636719 86.871094 72.792969 86.886719 72.925781 L 87.230469 75.277344 C 87.257812 75.410156 87.386719 75.527344 87.519531 75.542969 L 90.203125 75.839844 C 90.335938 75.851562 90.488281 75.964844 90.539062 76.089844 L 91.128906 77.359375 C 91.191406 77.476562 91.179688 77.664062 91.105469 77.777344 L 89.621094 80.046875 C 89.546875 80.15625 89.554688 80.332031 89.636719 80.4375 L 91.207031 82.203125 C 91.300781 82.296875 91.476562 82.324219 91.59375 82.265625 L 94.027344 81.054688 C 94.144531 80.996094 94.335938 81.007812 94.445312 81.082031 L 95.628906 81.808594 C 95.746094 81.875 95.839844 82.035156 95.839844 82.167969 L 95.816406 84.863281 C 95.8125 84.996094 95.914062 85.144531 96.039062 85.191406 C 96.039062 85.191406 96.105469 85.214844 96.257812 85.265625 C 97.03125 85.53125 98.355469 85.800781 98.355469 85.800781 C 98.488281 85.828125 98.648438 85.757812 98.71875 85.640625 L 100.121094 83.292969 C 100.1875 83.175781 100.351562 83.085938 100.484375 83.085938 L 101.761719 83.046875 C 101.894531 83.035156 102.0625 83.121094 102.132812 83.230469 L 103.566406 85.507812 C 103.636719 85.621094 103.800781 85.683594 103.929688 85.648438 L 106.269531 84.875 C 106.394531 84.828125 106.492188 84.679688 106.488281 84.546875 L 106.398438 81.792969 C 106.394531 81.660156 106.480469 81.492188 106.59375 81.421875 L 107.492188 80.792969 C 107.601562 80.714844 107.785156 80.695312 107.90625 80.75 L 110.347656 81.894531 C 110.46875 81.949219 110.640625 81.914062 110.730469 81.816406 L 112.339844 79.832031 C 112.417969 79.722656 112.417969 79.546875 112.34375 79.4375 L 110.773438 77.164062 C 110.699219 77.050781 110.679688 76.863281 110.734375 76.742188 Z M 98.089844 79.8125 C 93.851562 78.355469 91.597656 73.742188 93.050781 69.503906 C 94.503906 65.265625 99.117188 63.011719 103.355469 64.464844 C 107.59375 65.917969 109.851562 70.53125 108.398438 74.769531 C 106.941406 79.007812 102.328125 81.265625 98.089844 79.8125 Z M 98.089844 79.8125 " fill-opacity="1" fill-rule="nonzero"/></g></g></g></svg>